<?xml version="1.0" standalone="no"?>
<!DOCTYPE svg PUBLIC "-//W3C//DTD SVG 20010904//EN"
 "http://www.w3.org/TR/2001/REC-SVG-20010904/DTD/svg10.dtd">
<svg version="1.0" xmlns="http://www.w3.org/2000/svg"
 width="48.000000pt" height="48.000000pt" viewBox="0 0 48.000000 48.000000"
 preserveAspectRatio="xMidYMid meet">

<g transform="translate(0.000000,48.000000) scale(0.100000,-0.100000)"
fill="#000000" stroke="none">
<path d="M67 402 c-14 -16 -17 -41 -17 -164 0 -184 -4 -178 143 -178 87 0 107
3 107 15 0 11 -21 15 -107 17 l-108 3 -3 108 -3 107 161 0 161 0 -3 -107 -3
-108 -33 -5 c-43 -7 -46 -24 -4 -28 22 -2 41 3 53 14 17 15 19 32 19 164 0
186 5 180 -148 180 -92 0 -112 -3 -112 -15 0 -12 22 -15 113 -17 108 -3 112
-4 115 -25 l3 -23 -161 0 c-161 0 -161 0 -158 22 2 13 12 24 26 28 30 7 29 24
-1 28 -13 2 -30 -5 -40 -16z"/>
<path d="M331 276 c-7 -8 -21 -12 -32 -9 -16 5 -20 2 -18 -12 2 -10 12 -23 21
-29 13 -8 22 -5 43 14 14 13 25 29 25 37 0 17 -24 17 -39 -1z"/>
<path d="M110 255 c0 -12 15 -15 75 -15 60 0 75 3 75 15 0 12 -15 15 -75 15
-60 0 -75 -3 -75 -15z"/>
<path d="M331 186 c-7 -8 -21 -12 -33 -8 -24 6 -21 -15 5 -32 12 -8 22 -5 42
14 14 13 25 27 25 32 0 13 -27 9 -39 -6z"/>
<path d="M110 165 c0 -12 15 -15 75 -15 60 0 75 3 75 15 0 12 -15 15 -75 15
-60 0 -75 -3 -75 -15z"/>
</g>
</svg>
